<svg xmlns="http://www.w3.org/2000/svg" width="256" height="256" viewBox="0 0 100 100"><rect width="100" height="100" rx="50" fill="#5a3d95"></rect><path d="M47.83 50.12L47.83 50.12Q47.83 54.53 46.41 58.40Q45.00 62.27 42.29 65.13Q39.58 67.99 35.61 69.67Q31.65 71.36 26.53 71.36L26.53 71.36L8.54 71.36L8.54 69.21L14.32 67.45L14.32 32.55L8.54 31.41L9.13 28.64L26.53 28.64Q31.83 28.64 35.82 30.36Q39.81 32.07 42.46 35.00Q45.12 37.94 46.47 41.84Q47.83 45.74 47.83 50.12ZM25.49 32.01L20.42 32.01L20.42 67.99L25.49 67.99Q29.27 67.99 32.23 66.74Q35.20 65.49 37.24 63.18Q39.28 60.87 40.35 57.58Q41.42 54.29 41.42 50.12L41.42 50.12Q41.42 46.04 40.50 42.69Q39.58 39.34 37.65 36.95Q35.73 34.57 32.71 33.29Q29.69 32.01 25.49 32.01L25.49 32.01ZM52.59 28.64L67.78 28.64Q70.58 28.64 73.60 29.05Q76.63 29.45 79.13 30.76Q81.63 32.07 83.28 34.66Q84.94 37.25 84.94 41.66L84.94 41.66Q84.94 43.77 84.33 45.49Q83.72 47.20 82.67 48.48Q81.63 49.76 80.23 50.70Q78.83 51.64 77.19 52.26L77.19 52.26L86.52 67.63L91.46 68.62L90.84 71.36L81.63 71.36L71.27 53.66Q69.42 53.84 67.78 53.84L67.78 53.84L63.88 53.84L63.88 67.45L69.69 68.62L69.06 71.36L52.00 71.36L52.00 69.21L57.77 67.45L57.77 32.55L52.00 31.41L52.59 28.64ZM67.78 32.01L63.88 32.01L63.88 50.51L67.78 50.51Q69.75 50.51 71.67 50.19Q73.59 49.88 75.11 48.94Q76.63 48.00 77.58 46.26Q78.53 44.52 78.53 41.66L78.53 41.66Q78.53 38.65 77.58 36.79Q76.63 34.93 75.11 33.87Q73.59 32.81 71.67 32.41Q69.75 32.01 67.78 32.01L67.78 32.01Z" fill="#fff"></path></svg>